<?xml version="1.0" standalone="no"?>
<!DOCTYPE svg PUBLIC "-//W3C//DTD SVG 20010904//EN"
 "http://www.w3.org/TR/2001/REC-SVG-20010904/DTD/svg10.dtd">
<svg version="1.0" xmlns="http://www.w3.org/2000/svg"
 width="500.000000pt" height="500.000000pt" viewBox="0 0 500.000000 500.000000"
 preserveAspectRatio="xMidYMid meet">
<metadata>
Created by potrace 1.11, written by Peter Selinger 2001-2013
</metadata>
<g transform="translate(0.000000,500.000000) scale(0.100000,-0.100000)"
fill="#000000" stroke="none">
<path d="M1908 4605 c-1 -1 -30 -6 -63 -10 -33 -3 -82 -11 -110 -16 -27 -6
-61 -12 -75 -15 -61 -11 -213 -59 -305 -95 -482 -191 -884 -563 -1120 -1038
-49 -99 -127 -291 -118 -291 3 0 1 -6 -5 -12 -14 -18 -69 -245 -89 -369 -18
-114 -24 -483 -10 -599 4 -36 10 -85 13 -110 2 -25 16 -99 30 -165 14 -66 27
-130 30 -142 11 -56 101 -318 140 -412 108 -256 169 -358 278 -467 278 -278
660 -326 972 -123 l62 40 65 -15 c114 -27 187 -56 437 -176 330 -159 458 -199
633 -198 137 0 249 31 386 104 l83 45 70 -9 c75 -9 254 -9 303 2 62 13 71 15
114 30 149 54 274 189 354 381 26 64 55 149 61 181 2 10 11 46 19 79 9 33 18
71 20 85 14 73 28 148 32 170 7 30 11 77 20 195 4 50 8 108 10 130 2 22 7 74
10 116 2 43 7 101 10 130 2 30 7 86 9 125 3 39 7 96 10 125 3 30 8 90 11 134
4 44 9 82 11 84 6 6 16 8 110 16 44 3 95 8 114 10 19 2 64 6 100 10 36 3 83 7
105 9 22 3 96 10 165 16 216 19 209 14 186 126 -8 38 -14 78 -13 89 2 15 -14
28 -68 55 -67 34 -214 103 -225 105 -3 0 -27 11 -54 23 -65 29 -299 122 -411
163 -49 18 -91 33 -93 34 -1 2 3 14 9 28 10 23 7 34 -37 109 -73 126 -241 372
-289 424 -5 6 -26 30 -45 54 -106 132 -329 340 -485 452 -255 182 -598 326
-872 363 -26 4 -59 9 -73 12 -27 6 -416 14 -422 8z m2449 -1842 c-10 -9 -277
-10 -277 -1 0 5 64 8 142 8 78 0 138 -3 135 -7z m43 3 c0 -11 -19 -15 -25 -6
-3 5 1 10 9 10 9 0 16 -2 16 -4z m30 0 c0 -3 -4 -8 -10 -11 -5 -3 -10 -1 -10
4 0 6 5 11 10 11 6 0 10 -2 10 -4z"/>
</g>
</svg>
